<svg width="41" height="40" viewBox="0 0 41 40" fill="none" xmlns="http://www.w3.org/2000/svg">
<g clip-path="url(#clip0_19_210)">
<path d="M0.5 16C0.5 10.3995 0.5 7.59921 1.58993 5.46009C2.54867 3.57847 4.07847 2.04867 5.96009 1.08993C8.09921 0 10.8995 0 16.5 0H24.5C30.1005 0 32.9008 0 35.0399 1.08993C36.9215 2.04867 38.4513 3.57847 39.4101 5.46009C40.5 7.59921 40.5 10.3995 40.5 16V24C40.5 29.6005 40.5 32.4008 39.4101 34.5399C38.4513 36.4215 36.9215 37.9513 35.0399 38.9101C32.9008 40 30.1005 40 24.5 40H16.5C10.8995 40 8.09921 40 5.96009 38.9101C4.07847 37.9513 2.54867 36.4215 1.58993 34.5399C0.5 32.4008 0.5 29.6005 0.5 24V16Z" fill="white"/>
<path d="M0.5 16C0.5 10.3995 0.5 7.59921 1.58993 5.46009C2.54867 3.57847 4.07847 2.04867 5.96009 1.08993C8.09921 0 10.8995 0 16.5 0H24.5C30.1005 0 32.9008 0 35.0399 1.08993C36.9215 2.04867 38.4513 3.57847 39.4101 5.46009C40.5 7.59921 40.5 10.3995 40.5 16V24C40.5 29.6005 40.5 32.4008 39.4101 34.5399C38.4513 36.4215 36.9215 37.9513 35.0399 38.9101C32.9008 40 30.1005 40 24.5 40H16.5C10.8995 40 8.09921 40 5.96009 38.9101C4.07847 37.9513 2.54867 36.4215 1.58993 34.5399C0.5 32.4008 0.5 29.6005 0.5 24V16Z" fill="url(#paint0_linear_19_210)"/>
<path fill-rule="evenodd" clip-rule="evenodd" d="M20.5 2.54856C10.8618 2.54856 3.04855 10.3618 3.04855 20C3.04855 29.6382 10.8618 37.4515 20.5 37.4515C30.1382 37.4515 37.9515 29.6382 37.9515 20C37.9515 10.3618 30.1382 2.54856 20.5 2.54856ZM2.95146 20C2.95146 10.3082 10.8082 2.45148 20.5 2.45148C30.1918 2.45148 38.0485 10.3082 38.0485 20C38.0485 29.6918 30.1918 37.5486 20.5 37.5486C10.8082 37.5486 2.95146 29.6918 2.95146 20Z" fill="#D0D5DD"/>
<path fill-rule="evenodd" clip-rule="evenodd" d="M20.5 15.0974C17.7922 15.0974 15.5971 17.2925 15.5971 20.0003C15.5971 22.7081 17.7922 24.9032 20.5 24.9032C23.2078 24.9032 25.4029 22.7081 25.4029 20.0003C25.4029 17.2925 23.2078 15.0974 20.5 15.0974ZM15.5 20.0003C15.5 17.2389 17.7386 15.0003 20.5 15.0003C23.2614 15.0003 25.5 17.2389 25.5 20.0003C25.5 22.7617 23.2614 25.0003 20.5 25.0003C17.7386 25.0003 15.5 22.7617 15.5 20.0003Z" fill="#D0D5DD"/>
<path fill-rule="evenodd" clip-rule="evenodd" d="M20.5 16.6501C18.6501 16.6501 17.1505 18.1498 17.1505 19.9996C17.1505 21.8495 18.6501 23.3492 20.5 23.3492C22.3499 23.3492 23.8495 21.8495 23.8495 19.9996C23.8495 18.1498 22.3499 16.6501 20.5 16.6501ZM17.0534 19.9996C17.0534 18.0961 18.5965 16.553 20.5 16.553C22.4035 16.553 23.9466 18.0961 23.9466 19.9996C23.9466 21.9031 22.4035 23.4462 20.5 23.4462C18.5965 23.4462 17.0534 21.9031 17.0534 19.9996Z" fill="#D0D5DD"/>
<path d="M20.4514 0H20.5485V40H20.4514V0Z" fill="#D0D5DD"/>
<path d="M40.5 19.9512L40.5 20.0483L0.5 20.0483L0.5 19.9512L40.5 19.9512Z" fill="#D0D5DD"/>
<path d="M33.7524 0H33.8495V40H33.7524V0Z" fill="#D0D5DD"/>
<path d="M13.801 0H13.8981V40H13.801V0Z" fill="#D0D5DD"/>
<path d="M27.1019 0H27.199V40H27.1019V0Z" fill="#D0D5DD"/>
<path d="M7.15047 0H7.24755V40H7.15047V0Z" fill="#D0D5DD"/>
<path d="M40.5 33.252L40.5 33.349L0.5 33.349L0.5 33.252L40.5 33.252Z" fill="#D0D5DD"/>
<path d="M40.5 13.3008L40.5 13.3979L0.5 13.3979L0.5 13.3008L40.5 13.3008Z" fill="#D0D5DD"/>
<path d="M40.5 26.6016L40.5 26.6986L0.5 26.6986L0.5 26.6016L40.5 26.6016Z" fill="#D0D5DD"/>
<path d="M40.5 6.65039L40.5 6.74748L0.5 6.74748L0.5 6.65039L40.5 6.65039Z" fill="#D0D5DD"/>
<g filter="url(#filter0_dd_19_210)">
<circle cx="20.5" cy="20" r="10" fill="url(#paint1_linear_19_210)"/>
</g>
<g filter="url(#filter1_b_19_210)">
<path d="M0.5 20H40.5V27.2C40.5 31.6804 40.5 33.9206 39.6281 35.6319C38.8611 37.1372 37.6372 38.3611 36.1319 39.1281C34.4206 40 32.1804 40 27.7 40H13.3C8.81958 40 6.57937 40 4.86808 39.1281C3.36278 38.3611 2.13893 37.1372 1.37195 35.6319C0.5 33.9206 0.5 31.6804 0.5 27.2V20Z" fill="white" fill-opacity="0.2"/>
</g>
</g>
<path d="M0.625 16C0.625 13.1977 0.625097 11.1034 0.760827 9.4422C0.896437 7.78241 1.16682 6.56584 1.70131 5.51684C2.64806 3.65874 4.15874 2.14806 6.01684 1.20131C7.06584 0.666818 8.28241 0.396437 9.9422 0.260827C11.6034 0.125097 13.6977 0.125 16.5 0.125H24.5C27.3023 0.125 29.3966 0.125097 31.0578 0.260827C32.7176 0.396437 33.9342 0.666818 34.9832 1.20131C36.8413 2.14806 38.3519 3.65874 39.2987 5.51684C39.8332 6.56584 40.1036 7.78241 40.2392 9.4422C40.3749 11.1034 40.375 13.1977 40.375 16V24C40.375 26.8023 40.3749 28.8966 40.2392 30.5578C40.1036 32.2176 39.8332 33.4342 39.2987 34.4832C38.3519 36.3413 36.8413 37.8519 34.9832 38.7987C33.9342 39.3332 32.7176 39.6036 31.0578 39.7392C29.3966 39.8749 27.3023 39.875 24.5 39.875H16.5C13.6977 39.875 11.6034 39.8749 9.9422 39.7392C8.28241 39.6036 7.06584 39.3332 6.01684 38.7987C4.15874 37.8519 2.64806 36.3413 1.70131 34.4832C1.16682 33.4342 0.896437 32.2176 0.760827 30.5578C0.625097 28.8966 0.625 26.8023 0.625 24V16Z" stroke="#D0D5DD" stroke-width="0.25"/>
<defs>
<filter id="filter0_dd_19_210" x="6.75" y="7.5" width="27.5" height="27.5" filterUnits="userSpaceOnUse" color-interpolation-filters="sRGB">
<feFlood flood-opacity="0" result="BackgroundImageFix"/>
<feColorMatrix in="SourceAlpha" type="matrix" values="0 0 0 0 0 0 0 0 0 0 0 0 0 0 0 0 0 0 127 0" result="hardAlpha"/>
<feOffset dy="1.25"/>
<feGaussianBlur stdDeviation="1.25"/>
<feColorMatrix type="matrix" values="0 0 0 0 0.0627451 0 0 0 0 0.0941176 0 0 0 0 0.156863 0 0 0 0.06 0"/>
<feBlend mode="normal" in2="BackgroundImageFix" result="effect1_dropShadow_19_210"/>
<feColorMatrix in="SourceAlpha" type="matrix" values="0 0 0 0 0 0 0 0 0 0 0 0 0 0 0 0 0 0 127 0" result="hardAlpha"/>
<feOffset dy="1.25"/>
<feGaussianBlur stdDeviation="1.875"/>
<feColorMatrix type="matrix" values="0 0 0 0 0.0627451 0 0 0 0 0.0941176 0 0 0 0 0.156863 0 0 0 0.1 0"/>
<feBlend mode="normal" in2="effect1_dropShadow_19_210" result="effect2_dropShadow_19_210"/>
<feBlend mode="normal" in="SourceGraphic" in2="effect2_dropShadow_19_210" result="shape"/>
</filter>
<filter id="filter1_b_19_210" x="-5.75" y="13.75" width="52.5" height="32.5" filterUnits="userSpaceOnUse" color-interpolation-filters="sRGB">
<feFlood flood-opacity="0" result="BackgroundImageFix"/>
<feGaussianBlur in="BackgroundImageFix" stdDeviation="3.125"/>
<feComposite in2="SourceAlpha" operator="in" result="effect1_backgroundBlur_19_210"/>
<feBlend mode="normal" in="SourceGraphic" in2="effect1_backgroundBlur_19_210" result="shape"/>
</filter>
<linearGradient id="paint0_linear_19_210" x1="20.5" y1="0" x2="20.5" y2="40" gradientUnits="userSpaceOnUse">
<stop stop-color="white"/>
<stop offset="1" stop-color="#D0D5DD"/>
</linearGradient>
<linearGradient id="paint1_linear_19_210" x1="15.5" y1="30" x2="25.5" y2="10" gradientUnits="userSpaceOnUse">
<stop stop-color="#53389E"/>
<stop offset="1" stop-color="#6941C6"/>
</linearGradient>
<clipPath id="clip0_19_210">
<path d="M0.5 16C0.5 10.3995 0.5 7.59921 1.58993 5.46009C2.54867 3.57847 4.07847 2.04867 5.96009 1.08993C8.09921 0 10.8995 0 16.5 0H24.5C30.1005 0 32.9008 0 35.0399 1.08993C36.9215 2.04867 38.4513 3.57847 39.4101 5.46009C40.5 7.59921 40.5 10.3995 40.5 16V24C40.5 29.6005 40.5 32.4008 39.4101 34.5399C38.4513 36.4215 36.9215 37.9513 35.0399 38.9101C32.9008 40 30.1005 40 24.5 40H16.5C10.8995 40 8.09921 40 5.96009 38.9101C4.07847 37.9513 2.54867 36.4215 1.58993 34.5399C0.5 32.4008 0.5 29.6005 0.5 24V16Z" fill="white"/>
</clipPath>
</defs>
</svg>
