<svg width="50" height="16" viewBox="0 0 50 16" fill="none" xmlns="http://www.w3.org/2000/svg">
<path id="Vector" d="M25.6248 5.11501C25.5966 7.34388 27.6112 8.5876 29.1288 9.32714C30.688 10.0858 31.2117 10.5724 31.2055 11.251C31.1939 12.2894 29.9618 12.7477 28.8088 12.7655C26.7973 12.7966 25.6277 12.2224 24.6979 11.7881L23.9733 15.1788C24.9062 15.6087 26.6336 15.9835 28.4248 16C32.6296 16 35.3805 13.9244 35.3954 10.7063C35.4118 6.62215 29.7462 6.39609 29.7849 4.57057C29.7982 4.01703 30.3264 3.42633 31.4838 3.27614C32.0567 3.20027 33.6382 3.14221 35.4312 3.96787L36.1349 0.68728C35.1707 0.336188 33.9314 0 32.3884 0C28.4308 0 25.6473 2.10384 25.6248 5.11501ZM42.897 0.282576C42.1292 0.282576 41.4822 0.730439 41.1934 1.41772L35.1871 15.759H39.3888L40.2249 13.4483H45.3593L45.8443 15.759H49.5476L46.316 0.282576H42.897ZM43.4848 4.46335L44.6973 10.2749H41.3765L43.4848 4.46335ZM20.5305 0.282769L17.2186 15.7588H21.2224L24.5328 0.282382H20.5305V0.282769ZM14.6074 0.282382L10.44 10.8165L8.75425 1.85978C8.55644 0.859921 7.77529 0.282576 6.90782 0.282576H0.0954178L0 0.731988C1.39856 1.03547 2.98756 1.52494 3.95026 2.04868C4.53941 2.36861 4.70741 2.64828 4.90095 3.40853L8.09387 15.759H12.325L18.8118 0.282576H14.6074" fill="url(#paint0_linear_14_44769)"/>
<defs>
<linearGradient id="paint0_linear_14_44769" x1="22.779" y1="16.321" x2="23.2421" y2="-0.111274" gradientUnits="userSpaceOnUse">
<stop stop-color="#222357"/>
<stop offset="1" stop-color="#254AA5"/>
</linearGradient>
</defs>
</svg>
