<svg width="51" height="51" viewBox="0 0 51 51" fill="none" xmlns="http://www.w3.org/2000/svg">
<g id="chart-breakout-square">
<path id="Icon" d="M23.375 6.37502H16.575C13.0047 6.37502 11.2195 6.37502 9.85581 7.06985C8.65628 7.68104 7.68103 8.65629 7.06983 9.85583C6.375 11.2195 6.375 13.0047 6.375 16.575V34.425C6.375 37.9953 6.375 39.7805 7.06983 41.1442C7.68103 42.3437 8.65628 43.319 9.85581 43.9302C11.2195 44.625 13.0047 44.625 16.575 44.625H34.425C37.9953 44.625 39.7805 44.625 41.1442 43.9302C42.3437 43.319 43.319 42.3437 43.9302 41.1442C44.625 39.7805 44.625 37.9953 44.625 34.425V27.625M25.5 17H34V25.5M32.9375 7.43752V4.25002M41.3086 9.69142L43.5625 7.43752M43.5843 18.0625H46.7718M6.375 28.3626C7.76037 28.5765 9.17972 28.6875 10.625 28.6875C19.946 28.6875 28.1888 24.0711 33.1918 17" stroke="#5CC3FF" stroke-width="5.1" stroke-linecap="round" stroke-linejoin="round"/>
</g>
</svg>
