<svg width="71" height="71" viewBox="0 0 71 71" fill="none" xmlns="http://www.w3.org/2000/svg">
<g opacity="0.5">
<path d="M26.625 26.625H26.6545M44.375 44.375H44.4045M47.3333 23.6667L23.6666 47.3334M65.0833 35.5C65.0833 51.8384 51.8384 65.0834 35.5 65.0834C19.1615 65.0834 5.91663 51.8384 5.91663 35.5C5.91663 19.1616 19.1615 5.91669 35.5 5.91669C51.8384 5.91669 65.0833 19.1616 65.0833 35.5ZM28.1041 26.625C28.1041 27.4419 27.4419 28.1042 26.625 28.1042C25.808 28.1042 25.1458 27.4419 25.1458 26.625C25.1458 25.8081 25.808 25.1459 26.625 25.1459C27.4419 25.1459 28.1041 25.8081 28.1041 26.625ZM45.8541 44.375C45.8541 45.1919 45.1919 45.8542 44.375 45.8542C43.558 45.8542 42.8958 45.1919 42.8958 44.375C42.8958 43.5581 43.558 42.8959 44.375 42.8959C45.1919 42.8959 45.8541 43.5581 45.8541 44.375Z" stroke="#95D8FF" stroke-width="4" stroke-linecap="round" stroke-linejoin="round"/>
</g>
</svg>
