<svg width="71" height="71" viewBox="0 0 71 71" fill="none" xmlns="http://www.w3.org/2000/svg">
<g id="lock 1">
<path id="Vector" d="M56.2083 32.5417H14.7917C11.524 32.5417 8.875 35.1907 8.875 38.4583V59.1667C8.875 62.4344 11.524 65.0833 14.7917 65.0833H56.2083C59.476 65.0833 62.125 62.4344 62.125 59.1667V38.4583C62.125 35.1907 59.476 32.5417 56.2083 32.5417Z" stroke="#ABFFC2" stroke-width="4" stroke-linecap="round" stroke-linejoin="round"/>
<path id="Vector_2" d="M20.7084 32.5417V20.7083C20.7084 16.7853 22.2668 13.023 25.0408 10.2491C27.8147 7.47507 31.577 5.91667 35.5 5.91667C39.423 5.91667 43.1854 7.47507 45.9593 10.2491C48.7333 13.023 50.2917 16.7853 50.2917 20.7083V32.5417" stroke="#ABFFC2" stroke-width="4" stroke-linecap="round" stroke-linejoin="round"/>
</g>
</svg>
