<svg width="71" height="71" viewBox="0 0 71 71" fill="none" xmlns="http://www.w3.org/2000/svg">
<g opacity="0.5">
<path d="M7.39728 38.4584H25.1473M45.8556 38.4584H63.6056M35.5014 20.7084V62.125M35.5014 20.7084C39.5861 20.7084 42.8973 17.3971 42.8973 13.3125M35.5014 20.7084C31.4168 20.7084 28.1056 17.3971 28.1056 13.3125M11.8348 62.125L59.1681 62.125M11.8348 13.3125L28.1056 13.3125M28.1056 13.3125C28.1056 9.22792 31.4168 5.91669 35.5014 5.91669C39.5861 5.91669 42.8973 9.22791 42.8973 13.3125M42.8973 13.3125L59.1681 13.3125M26.2727 42.4117C25.0874 46.9505 21.0592 50.2917 16.2723 50.2917C11.4854 50.2917 7.4572 46.9505 6.27182 42.4117C6.17496 42.0409 6.12653 41.8555 6.12186 41.1145C6.119 40.6604 6.28779 39.6132 6.4332 39.1829C6.67043 38.481 6.92722 38.0848 7.4408 37.2924L16.2723 23.6667L25.1038 37.2924C25.6173 38.0848 25.8741 38.481 26.1114 39.1829C26.2568 39.6132 26.4256 40.6604 26.4227 41.1145C26.418 41.8555 26.3696 42.0409 26.2727 42.4117ZM64.7311 42.4117C63.5457 46.9505 59.5175 50.2917 54.7306 50.2917C49.9437 50.2917 45.9155 46.9505 44.7301 42.4117C44.6333 42.0409 44.5849 41.8555 44.5802 41.1145C44.5773 40.6604 44.7461 39.6132 44.8915 39.1829C45.1288 38.481 45.3856 38.0848 45.8991 37.2924L54.7306 23.6667L63.5621 37.2924C64.0757 38.0848 64.3325 38.481 64.5697 39.1829C64.7151 39.6132 64.8839 40.6604 64.881 41.1145C64.8764 41.8555 64.8279 42.0409 64.7311 42.4117Z" stroke="#8BFFAA" stroke-width="4" stroke-linecap="round" stroke-linejoin="round"/>
</g>
</svg>
