<svg width="51" height="51" viewBox="0 0 51 51" fill="none" xmlns="http://www.w3.org/2000/svg">
<g id="target-05">
<g id="Icon">
<path d="M25.4999 46.75C37.2359 46.75 46.7499 37.236 46.7499 25.5C46.7499 13.7639 37.2359 4.24999 25.4999 4.24999C13.7638 4.24999 4.24988 13.7639 4.24988 25.5C4.24988 37.236 13.7638 46.75 25.4999 46.75Z" stroke="#54FF82" stroke-width="5.1" stroke-linecap="round" stroke-linejoin="round"/>
<path d="M25.4999 38.25C32.5415 38.25 38.2499 32.5416 38.2499 25.5C38.2499 18.4584 32.5415 12.75 25.4999 12.75C18.4582 12.75 12.7499 18.4584 12.7499 25.5C12.7499 32.5416 18.4582 38.25 25.4999 38.25Z" stroke="#54FF82" stroke-width="5.1" stroke-linecap="round" stroke-linejoin="round"/>
<path d="M25.4999 29.75C27.8471 29.75 29.7499 27.8472 29.7499 25.5C29.7499 23.1528 27.8471 21.25 25.4999 21.25C23.1527 21.25 21.2499 23.1528 21.2499 25.5C21.2499 27.8472 23.1527 29.75 25.4999 29.75Z" stroke="#54FF82" stroke-width="5.1" stroke-linecap="round" stroke-linejoin="round"/>
</g>
</g>
</svg>
